<?xml version="1.0" encoding="UTF-8" standalone="no"?>
<svg xmlns:dc="http://purl.org/dc/elements/1.1/" xmlns:cc="http://creativecommons.org/ns#" xmlns:rdf="http://www.w3.org/1999/02/22-rdf-syntax-ns#" xmlns:svg="http://www.w3.org/2000/svg" xmlns="http://www.w3.org/2000/svg" xmlns:sodipodi="http://sodipodi.sourceforge.net/DTD/sodipodi-0.dtd" xmlns:inkscape="http://www.inkscape.org/namespaces/inkscape" width="40mm" height="40mm" viewBox="0 0 40.000001 40.000001" version="1.1" id="svg8" inkscape:version="1.0.2-2 (e86c870879, 2021-01-15)" sodipodi:docname="blackQueen.svg" inkscape:export-filename="C:\Users\Jarom\IdeaProjects\Checkers\res\blackQueen.png" inkscape:export-xdpi="25.4" inkscape:export-ydpi="25.4">
  <defs id="defs2" />
  <sodipodi:namedview id="base" pagecolor="#ffffff" bordercolor="#666666" borderopacity="1.0" inkscape:pageopacity="0.0" inkscape:pageshadow="2" inkscape:zoom="1.8741409" inkscape:cx="101.63153" inkscape:cy="146.70947" inkscape:document-units="mm" inkscape:current-layer="layer1" inkscape:document-rotation="0" showgrid="true" units="mm" inkscape:window-width="1267" inkscape:window-height="1040" inkscape:window-x="208" inkscape:window-y="0" inkscape:window-maximized="0">
    <inkscape:grid type="xygrid" id="grid18" spacingx="1" spacingy="1" empspacing="10" units="mm" />
  </sodipodi:namedview>
  <metadata id="metadata5">
    <rdf:RDF>
      <cc:Work rdf:about="">
        <dc:format>image/svg+xml</dc:format>
        <dc:type rdf:resource="http://purl.org/dc/dcmitype/StillImage" />
        <dc:title></dc:title>
      </cc:Work>
    </rdf:RDF>
  </metadata>
  <g inkscape:label="Layer 1" inkscape:groupmode="layer" id="layer1">
    <circle id="circleOuter" cx="20" cy="20" r="18" stroke-width="1" stroke="ivory" fill="black" />
    <circle id="circleInner" cx="20" cy="20" r="14" stroke="ivory" stroke-width="1" fill="black" />
    <g id="g47" transform="translate(17.2,17.2),scale(0.1)">
      <path d="m 83.514954,69.787741 h -110.066667 c -2.328333,0 -4.233333,1.905 -4.233333,4.23334 v 8.46666 c 0,2.32834 1.905,4.23334 4.233333,4.23334 h 110.066667 c 2.32833,0 4.23333,-1.905 4.23333,-4.23334 v -8.46666 c 0,-2.32834 -1.905,-4.23334 -4.23333,-4.23334 z m 16.933326,-84.666663 c -7.011456,0 -12.699996,5.6885411 -12.699996,12.7000001 0,1.87854102 0.42334,3.624791 1.16417,5.23875 l -19.15583,11.4829159 c -4.07459,2.434167 -9.3398,1.058334 -11.69459,-3.069166 l -21.563538,-37.729584 c 2.831041,-2.328333 4.683125,-5.820833 4.683125,-9.789583 0,-7.011458 -5.688542,-12.7 -12.7,-12.7 -7.011459,0 -12.7,5.688542 -12.7,12.7 0,3.96875 1.852083,7.46125 4.683125,9.789583 l -21.5635418,37.729584 c -2.354792,4.1275 -7.646458,5.503333 -11.6945832,3.069166 l -19.129375,-11.4829159 c 0.714375,-1.5875 1.164166,-3.36020898 1.164166,-5.23875 0,-7.011459 -5.688541,-12.7000001 -12.7,-12.7000001 -7.011458,0 -12.726458,5.6885411 -12.726458,12.7000001 0,7.011458 5.688542,12.6999999 12.7,12.6999999 0.687917,0 1.375833,-0.105834 2.037292,-0.211667 l 19.129375,51.01167 h 101.600003 l 19.12937,-51.01167 c 0.66146,0.105833 1.34938,0.211667 2.037286,0.211667 7.01146,0 12.7,-5.6885419 12.7,-12.6999999 0,-7.011459 -5.68854,-12.7000001 -12.7,-12.7000001 z" id="path36" style="stroke-width:0.264583;" fill="ivory" />
    </g>
  </g>
</svg>
